<svg xmlns="http://www.w3.org/2000/svg" viewBox="0 0 800 533" fill="none">
  <defs>
    <linearGradient id="obg" x1="0" y1="0" x2="800" y2="533" gradientUnits="userSpaceOnUse">
      <stop offset="0%" stop-color="#f5f0e8"/>
      <stop offset="100%" stop-color="#e8e0d0"/>
    </linearGradient>
  </defs>
  <rect width="800" height="533" rx="24" fill="url(#obg)"/>
  <!-- Wall -->
  <rect x="0" y="0" width="800" height="350" rx="24" fill="#faf7f2"/>
  <!-- Window frame -->
  <rect x="80" y="50" width="280" height="200" rx="8" fill="white" stroke="#d1c4a5" stroke-width="2"/>
  <line x1="220" y1="50" x2="220" y2="250" stroke="#d1c4a5" stroke-width="1.5"/>
  <line x1="80" y1="150" x2="360" y2="150" stroke="#d1c4a5" stroke-width="1.5"/>
  <!-- View through window - California hills -->
  <path d="M82 250 L82 160 Q150 120 220 150 Q290 110 358 140 L358 250 Z" fill="#166534" opacity="0.1"/>
  <circle cx="320" cy="90" r="20" fill="#fbbf24" opacity="0.2"/>
  <!-- Bookshelf -->
  <rect x="440" y="50" width="300" height="200" rx="8" fill="#8b5e34" opacity="0.15"/>
  <rect x="440" y="115" width="300" height="4" fill="#8b5e34" opacity="0.2"/>
  <rect x="440" y="180" width="300" height="4" fill="#8b5e34" opacity="0.2"/>
  <!-- Books -->
  <rect x="460" y="60" width="18" height="50" rx="2" fill="#166534" opacity="0.6"/>
  <rect x="482" y="65" width="14" height="45" rx="2" fill="#1f2937" opacity="0.4"/>
  <rect x="500" y="58" width="16" height="52" rx="2" fill="#854d0e" opacity="0.4"/>
  <rect x="520" y="62" width="12" height="48" rx="2" fill="#166534" opacity="0.4"/>
  <rect x="536" y="60" width="20" height="50" rx="2" fill="#991b1b" opacity="0.3"/>
  <rect x="580" y="65" width="16" height="45" rx="2" fill="#166534" opacity="0.5"/>
  <rect x="600" y="58" width="14" height="52" rx="2" fill="#1f2937" opacity="0.3"/>
  <rect x="618" y="62" width="18" height="48" rx="2" fill="#854d0e" opacity="0.35"/>
  <!-- Second shelf books -->
  <rect x="460" y="125" width="20" height="50" rx="2" fill="#1f2937" opacity="0.4"/>
  <rect x="484" y="128" width="14" height="47" rx="2" fill="#166534" opacity="0.5"/>
  <rect x="502" y="122" width="16" height="53" rx="2" fill="#854d0e" opacity="0.3"/>
  <rect x="540" y="125" width="18" height="50" rx="2" fill="#166534" opacity="0.45"/>
  <rect x="562" y="130" width="12" height="45" rx="2" fill="#991b1b" opacity="0.25"/>
  <!-- Third shelf - photo frame and small items -->
  <rect x="460" y="192" width="40" height="48" rx="4" fill="white" stroke="#d1c4a5" stroke-width="1"/>
  <rect x="465" y="197" width="30" height="30" rx="2" fill="#166534" opacity="0.1"/>
  <rect x="520" y="200" width="30" height="40" rx="4" fill="#166534" opacity="0.15"/>
  <!-- Conference table -->
  <ellipse cx="400" cy="400" rx="280" ry="60" fill="#8b5e34" opacity="0.2"/>
  <ellipse cx="400" cy="395" rx="280" ry="55" fill="#d1c4a5" opacity="0.6"/>
  <ellipse cx="400" cy="390" rx="270" ry="50" fill="#c4a882" opacity="0.4"/>
  <!-- Items on table -->
  <rect x="300" y="365" width="80" height="20" rx="4" fill="#1f2937" opacity="0.3"/>
  <rect x="308" y="369" width="64" height="12" rx="2" fill="#166534" opacity="0.3"/>
  <rect x="420" y="360" width="60" height="40" rx="3" fill="white" stroke="#e5e7eb" stroke-width="1"/>
  <rect x="428" y="368" width="35" height="3" rx="1.5" fill="#e5e7eb"/>
  <rect x="428" y="375" width="25" height="3" rx="1.5" fill="#e5e7eb"/>
  <rect x="428" y="382" width="40" height="3" rx="1.5" fill="#e5e7eb"/>
  <!-- Chairs -->
  <ellipse cx="200" cy="440" rx="40" ry="20" fill="#1f2937" opacity="0.15"/>
  <ellipse cx="600" cy="440" rx="40" ry="20" fill="#1f2937" opacity="0.15"/>
  <ellipse cx="400" cy="470" rx="40" ry="20" fill="#1f2937" opacity="0.15"/>
  <!-- Pendant lights -->
  <line x1="250" y1="0" x2="250" y2="30" stroke="#d1c4a5" stroke-width="1"/>
  <circle cx="250" cy="38" r="12" fill="#fbbf24" opacity="0.15"/>
  <circle cx="250" cy="38" r="8" fill="#fbbf24" opacity="0.25"/>
  <line x1="550" y1="0" x2="550" y2="30" stroke="#d1c4a5" stroke-width="1"/>
  <circle cx="550" cy="38" r="12" fill="#fbbf24" opacity="0.15"/>
  <circle cx="550" cy="38" r="8" fill="#fbbf24" opacity="0.25"/>
  <!-- Floor -->
  <rect x="0" y="450" width="800" height="83" rx="0" fill="#166534" opacity="0.04"/>
</svg>
