<svg xmlns="http://www.w3.org/2000/svg" viewBox="0 0 800 600" fill="none">
  <defs>
    <linearGradient id="bg2" x1="0" y1="0" x2="800" y2="600" gradientUnits="userSpaceOnUse">
      <stop offset="0%" stop-color="#f5f0e8"/>
      <stop offset="100%" stop-color="#ede8dc"/>
    </linearGradient>
  </defs>
  <!-- Background -->
  <rect width="800" height="600" rx="24" fill="url(#bg2)"/>
  <!-- Office desk -->
  <rect x="100" y="350" width="600" height="12" rx="6" fill="#166534" opacity="0.15"/>
  <!-- Laptop -->
  <rect x="280" y="220" width="240" height="140" rx="10" fill="#1f2937"/>
  <rect x="288" y="228" width="224" height="124" rx="4" fill="#166534"/>
  <!-- Screen content -->
  <rect x="300" y="245" width="80" height="8" rx="4" fill="white" opacity="0.8"/>
  <rect x="300" y="260" width="60" height="6" rx="3" fill="white" opacity="0.4"/>
  <rect x="300" y="280" width="200" height="40" rx="6" fill="white" opacity="0.15"/>
  <rect x="310" y="290" width="120" height="4" rx="2" fill="white" opacity="0.4"/>
  <rect x="310" y="300" width="80" height="4" rx="2" fill="white" opacity="0.3"/>
  <rect x="300" y="330" width="60" height="18" rx="9" fill="#4ade80" opacity="0.6"/>
  <!-- Laptop base -->
  <path d="M250 360 L280 360 L280 365 Q280 370 285 370 L515 370 Q520 370 520 365 L520 360 L550 360 L555 370 Q555 380 545 380 L255 380 Q245 380 245 370 Z" fill="#374151"/>
  <!-- Person 1 (left) -->
  <circle cx="220" cy="250" r="35" fill="#166534" opacity="0.15"/>
  <circle cx="220" cy="235" r="18" fill="#d1c4a5"/>
  <path d="M195 290 Q195 265 220 265 Q245 265 245 290 L245 350 L195 350 Z" fill="#166534" opacity="0.8"/>
  <rect x="200" y="270" width="40" height="5" rx="2.5" fill="white" opacity="0.3"/>
  <!-- Person 2 (right) -->
  <circle cx="580" cy="250" r="35" fill="#166534" opacity="0.15"/>
  <circle cx="580" cy="235" r="18" fill="#c4a882"/>
  <path d="M555 290 Q555 265 580 265 Q605 265 605 290 L605 350 L555 350 Z" fill="#1f2937" opacity="0.8"/>
  <rect x="560" y="270" width="40" height="5" rx="2.5" fill="white" opacity="0.3"/>
  <!-- Document stack -->
  <rect x="120" y="300" width="70" height="50" rx="6" fill="white" stroke="#e5e7eb" stroke-width="1"/>
  <rect x="130" y="310" width="40" height="3" rx="1.5" fill="#e5e7eb"/>
  <rect x="130" y="318" width="30" height="3" rx="1.5" fill="#e5e7eb"/>
  <rect x="130" y="326" width="45" height="3" rx="1.5" fill="#e5e7eb"/>
  <rect x="125" y="305" width="70" height="50" rx="6" fill="white" stroke="#e5e7eb" stroke-width="1"/>
  <rect x="135" y="315" width="40" height="3" rx="1.5" fill="#e5e7eb"/>
  <rect x="135" y="323" width="30" height="3" rx="1.5" fill="#e5e7eb"/>
  <rect x="135" y="331" width="45" height="3" rx="1.5" fill="#e5e7eb"/>
  <!-- Coffee cup -->
  <rect x="615" y="315" width="30" height="35" rx="4" fill="#8b5e34" opacity="0.3"/>
  <rect x="612" y="310" width="36" height="8" rx="4" fill="#8b5e34" opacity="0.4"/>
  <path d="M645 325 Q660 325 660 335 Q660 345 645 345" stroke="#8b5e34" stroke-width="2" fill="none" opacity="0.3"/>
  <!-- Plant -->
  <rect x="660" y="330" width="24" height="30" rx="4" fill="#166534" opacity="0.2"/>
  <circle cx="672" cy="318" r="18" fill="#166534" opacity="0.25"/>
  <circle cx="660" cy="310" r="12" fill="#22c55e" opacity="0.2"/>
  <circle cx="685" cy="312" r="10" fill="#22c55e" opacity="0.15"/>
  <!-- Window/frame in background -->
  <rect x="300" y="100" width="200" height="100" rx="8" fill="white" opacity="0.5" stroke="#e5e7eb" stroke-width="1"/>
  <line x1="400" y1="100" x2="400" y2="200" stroke="#e5e7eb" stroke-width="1"/>
  <line x1="300" y1="150" x2="500" y2="150" stroke="#e5e7eb" stroke-width="1"/>
  <!-- Light reflection -->
  <circle cx="350" cy="130" r="20" fill="#fbbf24" opacity="0.1"/>
  <!-- Floating elements -->
  <rect x="580" y="150" width="120" height="60" rx="10" fill="white" opacity="0.8" stroke="#e5e7eb" stroke-width="1"/>
  <circle cx="605" cy="170" r="8" fill="#166534" opacity="0.2"/>
  <rect x="620" y="165" width="60" height="4" rx="2" fill="#e5e7eb"/>
  <rect x="620" y="175" width="40" height="4" rx="2" fill="#e5e7eb"/>
  <circle cx="690" cy="190" r="5" fill="#4ade80" opacity="0.5"/>
  <!-- Floor -->
  <rect x="0" y="390" width="800" height="210" rx="0" fill="#166534" opacity="0.04"/>
</svg>
