<svg xmlns="http://www.w3.org/2000/svg" viewBox="0 0 800 600" fill="none">
  <rect width="800" height="600" rx="16" fill="#166534"/>
  <text x="400" y="60" font-family="Georgia, serif" font-size="22" fill="white" text-anchor="middle" opacity="0.9">LLC Organizational Structure</text>
  <rect x="300" y="90" width="200" height="60" rx="10" fill="white" opacity="0.15" stroke="white" stroke-opacity="0.3" stroke-width="1.5"/>
  <text x="400" y="125" font-family="Arial" font-size="13" fill="white" text-anchor="middle" font-weight="bold">LLC Entity</text>
  <line x1="400" y1="150" x2="400" y2="190" stroke="white" stroke-opacity="0.3" stroke-width="1.5"/>
  <line x1="200" y1="190" x2="600" y2="190" stroke="white" stroke-opacity="0.3" stroke-width="1.5"/>
  <line x1="200" y1="190" x2="200" y2="220" stroke="white" stroke-opacity="0.3" stroke-width="1.5"/>
  <line x1="400" y1="190" x2="400" y2="220" stroke="white" stroke-opacity="0.3" stroke-width="1.5"/>
  <line x1="600" y1="190" x2="600" y2="220" stroke="white" stroke-opacity="0.3" stroke-width="1.5"/>
  <rect x="120" y="220" width="160" height="80" rx="10" fill="white" opacity="0.1"/>
  <text x="200" y="255" font-family="Arial" font-size="12" fill="white" text-anchor="middle" font-weight="bold" opacity="0.8">Members</text>
  <text x="200" y="278" font-family="Arial" font-size="10" fill="white" text-anchor="middle" opacity="0.4">Owners of the LLC</text>
  <rect x="320" y="220" width="160" height="80" rx="10" fill="white" opacity="0.1"/>
  <text x="400" y="255" font-family="Arial" font-size="12" fill="white" text-anchor="middle" font-weight="bold" opacity="0.8">Managers</text>
  <text x="400" y="278" font-family="Arial" font-size="10" fill="white" text-anchor="middle" opacity="0.4">Day-to-day operations</text>
  <rect x="520" y="220" width="160" height="80" rx="10" fill="white" opacity="0.1"/>
  <text x="600" y="255" font-family="Arial" font-size="12" fill="white" text-anchor="middle" font-weight="bold" opacity="0.8">Reg. Agent</text>
  <text x="600" y="278" font-family="Arial" font-size="10" fill="white" text-anchor="middle" opacity="0.4">Legal point of contact</text>
  <rect x="100" y="350" width="600" height="200" rx="12" fill="white" opacity="0.06"/>
  <text x="400" y="385" font-family="Arial" font-size="13" fill="white" text-anchor="middle" font-weight="bold" opacity="0.7">Key Documents</text>
  <g transform="translate(140, 410)">
    <rect width="140" height="100" rx="8" fill="white" opacity="0.08"/>
    <text x="70" y="40" font-family="Arial" font-size="10" fill="white" text-anchor="middle" opacity="0.6">Articles of</text>
    <text x="70" y="55" font-family="Arial" font-size="10" fill="white" text-anchor="middle" opacity="0.6">Organization</text>
    <circle cx="70" cy="80" r="8" fill="#4ade80" opacity="0.4"/>
    <path d="M66 80 L69 83 L75 77" stroke="white" stroke-width="1.5" fill="none" stroke-linecap="round"/>
  </g>
  <g transform="translate(330, 410)">
    <rect width="140" height="100" rx="8" fill="white" opacity="0.08"/>
    <text x="70" y="40" font-family="Arial" font-size="10" fill="white" text-anchor="middle" opacity="0.6">Operating</text>
    <text x="70" y="55" font-family="Arial" font-size="10" fill="white" text-anchor="middle" opacity="0.6">Agreement</text>
    <circle cx="70" cy="80" r="8" fill="#4ade80" opacity="0.4"/>
    <path d="M66 80 L69 83 L75 77" stroke="white" stroke-width="1.5" fill="none" stroke-linecap="round"/>
  </g>
  <g transform="translate(520, 410)">
    <rect width="140" height="100" rx="8" fill="white" opacity="0.08"/>
    <text x="70" y="40" font-family="Arial" font-size="10" fill="white" text-anchor="middle" opacity="0.6">EIN</text>
    <text x="70" y="55" font-family="Arial" font-size="10" fill="white" text-anchor="middle" opacity="0.6">Confirmation</text>
    <circle cx="70" cy="80" r="8" fill="#fbbf24" opacity="0.4"/>
    <text x="70" y="84" font-family="Arial" font-size="8" fill="white" text-anchor="middle">...</text>
  </g>
</svg>
