<svg xmlns="http://www.w3.org/2000/svg" viewBox="0 0 800 600" fill="none">
  <rect width="800" height="600" rx="16" fill="#1f2937"/>
  <text x="400" y="60" font-family="Georgia, serif" font-size="22" fill="white" text-anchor="middle" opacity="0.9">Veil Piercing Risk Factors</text>
  <text x="400" y="85" font-family="Arial" font-size="12" fill="white" text-anchor="middle" opacity="0.35">When courts can hold you personally liable</text>
  <path d="M400 120 L470 155 L470 250 Q470 320 400 355 Q330 320 330 250 L330 155 Z" fill="white" opacity="0.06" stroke="white" stroke-opacity="0.15" stroke-width="2"/>
  <path d="M380 220 L395 235 L425 200" stroke="#4ade80" stroke-width="3" fill="none" stroke-linecap="round" stroke-linejoin="round" opacity="0.6"/>
  <text x="400" y="390" font-family="Arial" font-size="11" fill="white" text-anchor="middle" opacity="0.5" font-weight="bold">COMMON RISK FACTORS</text>
  <g transform="translate(100, 420)">
    <rect width="170" height="50" rx="8" fill="#ef4444" opacity="0.15"/>
    <circle cx="25" cy="25" r="8" fill="#ef4444" opacity="0.4"/>
    <text x="25" y="29" font-family="Arial" font-size="10" fill="white" text-anchor="middle">!</text>
    <text x="45" y="22" font-family="Arial" font-size="10" fill="white" opacity="0.7">Commingling</text>
    <text x="45" y="37" font-family="Arial" font-size="9" fill="white" opacity="0.4">Personal + business funds</text>
  </g>
  <g transform="translate(310, 420)">
    <rect width="170" height="50" rx="8" fill="#ef4444" opacity="0.15"/>
    <circle cx="25" cy="25" r="8" fill="#ef4444" opacity="0.4"/>
    <text x="25" y="29" font-family="Arial" font-size="10" fill="white" text-anchor="middle">!</text>
    <text x="45" y="22" font-family="Arial" font-size="10" fill="white" opacity="0.7">Undercapitalization</text>
    <text x="45" y="37" font-family="Arial" font-size="9" fill="white" opacity="0.4">Insufficient LLC funding</text>
  </g>
  <g transform="translate(520, 420)">
    <rect width="170" height="50" rx="8" fill="#ef4444" opacity="0.15"/>
    <circle cx="25" cy="25" r="8" fill="#ef4444" opacity="0.4"/>
    <text x="25" y="29" font-family="Arial" font-size="10" fill="white" text-anchor="middle">!</text>
    <text x="45" y="22" font-family="Arial" font-size="10" fill="white" opacity="0.7">No Formalities</text>
    <text x="45" y="37" font-family="Arial" font-size="9" fill="white" opacity="0.4">Skipping records/meetings</text>
  </g>
  <g transform="translate(200, 490)">
    <rect width="170" height="50" rx="8" fill="#f59e0b" opacity="0.12"/>
    <circle cx="25" cy="25" r="8" fill="#f59e0b" opacity="0.4"/>
    <text x="25" y="29" font-family="Arial" font-size="10" fill="white" text-anchor="middle">~</text>
    <text x="45" y="22" font-family="Arial" font-size="10" fill="white" opacity="0.7">Fraud / Injustice</text>
    <text x="45" y="37" font-family="Arial" font-size="9" fill="white" opacity="0.4">Using LLC to deceive</text>
  </g>
  <g transform="translate(420, 490)">
    <rect width="170" height="50" rx="8" fill="#f59e0b" opacity="0.12"/>
    <circle cx="25" cy="25" r="8" fill="#f59e0b" opacity="0.4"/>
    <text x="25" y="29" font-family="Arial" font-size="10" fill="white" text-anchor="middle">~</text>
    <text x="45" y="22" font-family="Arial" font-size="10" fill="white" opacity="0.7">Alter Ego</text>
    <text x="45" y="37" font-family="Arial" font-size="9" fill="white" opacity="0.4">LLC is just a shell</text>
  </g>
</svg>
