<svg xmlns="http://www.w3.org/2000/svg" viewBox="0 0 800 450" fill="none">
  <rect width="800" height="450" rx="16" fill="#166534"/>
  <rect x="100" y="40" width="600" height="370" rx="12" fill="white" opacity="0.95"/>
  <rect x="100" y="40" width="160" height="370" rx="12" fill="#f8f7f4"/>
  <rect x="260" y="40" width="1" height="370" fill="#e5e7eb"/>
  <text x="180" y="80" font-family="Arial" font-size="13" fill="#166534" text-anchor="middle" font-weight="bold">Biz Legal</text>
  <text x="180" y="95" font-family="Arial" font-size="9" fill="#9ca3af" text-anchor="middle">Client Portal</text>
  <rect x="120" y="120" width="120" height="28" rx="6" fill="#166534" opacity="0.1"/>
  <text x="180" y="138" font-family="Arial" font-size="10" fill="#166534" text-anchor="middle">Overview</text>
  <text x="180" y="170" font-family="Arial" font-size="10" fill="#6b7280" text-anchor="middle">Filings</text>
  <text x="180" y="195" font-family="Arial" font-size="10" fill="#6b7280" text-anchor="middle">Compliance</text>
  <text x="180" y="220" font-family="Arial" font-size="10" fill="#6b7280" text-anchor="middle">Documents</text>
  <text x="290" y="80" font-family="Georgia" font-size="18" fill="#111827">Welcome back, John</text>
  <text x="290" y="100" font-family="Arial" font-size="11" fill="#9ca3af">Pacific Coast Ventures LLC</text>
  <rect x="290" y="120" width="130" height="70" rx="8" fill="#f8f7f4"/>
  <text x="305" y="145" font-family="Arial" font-size="9" fill="#6b7280">LLC Status</text>
  <text x="305" y="170" font-family="Georgia" font-size="16" fill="#166534">Active</text>
  <rect x="440" y="120" width="130" height="70" rx="8" fill="#f8f7f4"/>
  <text x="455" y="145" font-family="Arial" font-size="9" fill="#6b7280">Filings</text>
  <text x="455" y="170" font-family="Georgia" font-size="16" fill="#f59e0b">In Progress</text>
  <rect x="590" y="120" width="90" height="70" rx="8" fill="#f8f7f4"/>
  <text x="605" y="145" font-family="Arial" font-size="9" fill="#6b7280">Score</text>
  <text x="605" y="170" font-family="Georgia" font-size="16" fill="#166534">85</text>
  <rect x="290" y="210" width="390" height="180" rx="10" fill="#f8f7f4"/>
  <text x="310" y="240" font-family="Arial" font-size="12" fill="#111827" font-weight="bold">Filing Progress</text>
  <rect x="310" y="258" width="350" height="8" rx="4" fill="#e5e7eb"/>
  <rect x="310" y="258" width="250" height="8" rx="4" fill="#166534" opacity="0.7"/>
  <text x="310" y="288" font-family="Arial" font-size="10" fill="#6b7280">5 of 7 steps complete</text>
  <text x="310" y="320" font-family="Arial" font-size="10" fill="#6b7280">Next: EIN Application</text>
  <rect x="310" y="340" width="100" height="28" rx="14" fill="#166534"/>
  <text x="360" y="358" font-family="Arial" font-size="10" fill="white" text-anchor="middle">View Details</text>
</svg>
