<svg xmlns="http://www.w3.org/2000/svg" viewBox="0 0 800 450" fill="none">
  <rect width="800" height="450" rx="16" fill="#f5f0e8"/>
  <rect x="100" y="30" width="600" height="390" rx="14" fill="white" stroke="#e5e7eb" stroke-width="1.5"/>
  <rect x="100" y="30" width="600" height="60" rx="14" fill="#166534"/>
  <rect x="100" y="75" width="600" height="15" fill="#166534"/>
  <text x="400" y="68" font-family="Arial" font-size="16" fill="white" text-anchor="middle" font-weight="bold">2026 Compliance Calendar</text>
  <g font-family="Arial" font-size="11" fill="#6b7280" text-anchor="middle">
    <text x="185" y="118">Jan</text><text x="270" y="118">Feb</text><text x="355" y="118">Mar</text>
    <text x="440" y="118">Apr</text><text x="525" y="118">May</text><text x="610" y="118">Jun</text>
  </g>
  <line x1="130" y1="130" x2="670" y2="130" stroke="#e5e7eb" stroke-width="1"/>
  <rect x="420" y="145" width="120" height="36" rx="8" fill="#ef4444" opacity="0.1" stroke="#ef4444" stroke-opacity="0.3" stroke-width="1"/>
  <text x="480" y="160" font-family="Arial" font-size="10" fill="#ef4444" text-anchor="middle" font-weight="bold">Franchise Tax</text>
  <text x="480" y="174" font-family="Arial" font-size="9" fill="#ef4444" text-anchor="middle" opacity="0.7">Due Apr 15</text>
  <rect x="420" y="195" width="120" height="36" rx="8" fill="#166534" opacity="0.08" stroke="#166534" stroke-opacity="0.2" stroke-width="1"/>
  <text x="480" y="210" font-family="Arial" font-size="10" fill="#166534" text-anchor="middle" font-weight="bold">Form 3522</text>
  <text x="480" y="224" font-family="Arial" font-size="9" fill="#166534" text-anchor="middle" opacity="0.6">File with FTB</text>
  <rect x="565" y="145" width="120" height="36" rx="8" fill="#f59e0b" opacity="0.1" stroke="#f59e0b" stroke-opacity="0.3" stroke-width="1"/>
  <text x="625" y="160" font-family="Arial" font-size="10" fill="#92400e" text-anchor="middle" font-weight="bold">Statement of Info</text>
  <text x="625" y="174" font-family="Arial" font-size="9" fill="#92400e" text-anchor="middle" opacity="0.7">Biennial filing</text>
  <rect x="565" y="195" width="120" height="36" rx="8" fill="#166534" opacity="0.08" stroke="#166534" stroke-opacity="0.2" stroke-width="1"/>
  <text x="625" y="210" font-family="Arial" font-size="10" fill="#166534" text-anchor="middle" font-weight="bold">BOI Report</text>
  <text x="625" y="224" font-family="Arial" font-size="9" fill="#166534" text-anchor="middle" opacity="0.6">FinCEN filing</text>
  <rect x="130" y="260" width="540" height="1" fill="#e5e7eb"/>
  <g transform="translate(130, 280)">
    <circle r="6" cx="6" cy="8" fill="#ef4444" opacity="0.3"/><text x="20" y="12" font-family="Arial" font-size="10" fill="#6b7280">Urgent</text>
    <circle r="6" cx="100" cy="8" fill="#f59e0b" opacity="0.3"/><text x="114" y="12" font-family="Arial" font-size="10" fill="#6b7280">Upcoming</text>
    <circle r="6" cx="210" cy="8" fill="#166534" opacity="0.2"/><text x="224" y="12" font-family="Arial" font-size="10" fill="#6b7280">Standard</text>
  </g>
  <rect x="130" y="320" width="540" height="80" rx="10" fill="#166534" opacity="0.05"/>
  <text x="160" y="345" font-family="Arial" font-size="11" fill="#166534" font-weight="bold">Next deadline:</text>
  <text x="260" y="345" font-family="Arial" font-size="11" fill="#111827">Annual Franchise Tax — $800 minimum</text>
  <text x="160" y="370" font-family="Arial" font-size="11" fill="#6b7280">Due April 15, 2026 — File Form 3522 with the Franchise Tax Board</text>
</svg>
