<svg xmlns="http://www.w3.org/2000/svg" viewBox="0 0 800 600" fill="none">
  <rect width="800" height="600" rx="16" fill="#f5f0e8"/>
  <rect x="200" y="60" width="300" height="400" rx="10" fill="white" stroke="#e5e7eb" stroke-width="1.5"/>
  <rect x="200" y="60" width="300" height="50" rx="10" fill="#166534"/>
  <rect x="200" y="98" width="300" height="12" fill="#166534"/>
  <text x="350" y="92" font-family="Arial" font-size="13" fill="white" text-anchor="middle" font-weight="bold">DOCUMENT REVIEW</text>
  <rect x="230" y="130" width="200" height="6" rx="3" fill="#e5e7eb"/>
  <rect x="230" y="145" width="160" height="6" rx="3" fill="#e5e7eb"/>
  <rect x="230" y="160" width="220" height="6" rx="3" fill="#e5e7eb"/>
  <rect x="230" y="190" width="180" height="6" rx="3" fill="#e5e7eb"/>
  <rect x="230" y="205" width="210" height="6" rx="3" fill="#e5e7eb"/>
  <rect x="230" y="220" width="140" height="6" rx="3" fill="#e5e7eb"/>
  <rect x="230" y="250" width="240" height="6" rx="3" fill="#e5e7eb"/>
  <rect x="230" y="265" width="180" height="6" rx="3" fill="#e5e7eb"/>
  <rect x="230" y="295" width="100" height="6" rx="3" fill="#e5e7eb"/>
  <rect x="230" y="310" width="120" height="6" rx="3" fill="#e5e7eb"/>
  <line x1="230" y1="350" x2="330" y2="350" stroke="#111827" stroke-width="1"/>
  <text x="230" y="365" font-family="Arial" font-size="8" fill="#6b7280">Reviewed by</text>
  <line x1="370" y1="350" x2="470" y2="350" stroke="#111827" stroke-width="1"/>
  <text x="370" y="365" font-family="Arial" font-size="8" fill="#6b7280">Date</text>
  <circle cx="560" cy="200" r="80" fill="#166534" opacity="0.08" stroke="#166534" stroke-opacity="0.15" stroke-width="2"/>
  <circle cx="560" cy="200" r="50" fill="none" stroke="#166534" stroke-opacity="0.2" stroke-width="1.5"/>
  <rect x="545" y="180" width="30" height="40" rx="2" fill="#166534" opacity="0.15"/>
  <path d="M540 200 L580 200 M560 180 L560 220" stroke="#166534" stroke-width="1.5" opacity="0.3"/>
  <text x="560" y="310" font-family="Arial" font-size="12" fill="#166534" text-anchor="middle" opacity="0.6" font-weight="bold">Attorney Reviewed</text>
  <circle cx="560" cy="200" r="8" fill="#4ade80" opacity="0.4"/>
  <path d="M555 200 L558 203 L565 196" stroke="white" stroke-width="2" fill="none" stroke-linecap="round"/>
  <rect x="150" y="500" width="500" height="50" rx="10" fill="#166534" opacity="0.06"/>
  <text x="400" y="530" font-family="Arial" font-size="12" fill="#166534" text-anchor="middle" opacity="0.6">Every document prepared with precision and reviewed by licensed attorneys</text>
</svg>
