<svg xmlns="http://www.w3.org/2000/svg" viewBox="0 0 800 600" fill="none">
  <rect width="800" height="600" rx="16" fill="#f5f0e8"/>
  <circle cx="400" cy="220" r="80" fill="#166534" opacity="0.08"/>
  <circle cx="400" cy="200" r="40" fill="#d1c4a5"/>
  <path d="M355 290 Q355 260 400 260 Q445 260 445 290 L445 380 L355 380 Z" fill="#166534" opacity="0.8"/>
  <rect x="365" y="275" width="70" height="8" rx="4" fill="white" opacity="0.3"/>
  <rect x="300" y="330" width="80" height="100" rx="8" fill="white" stroke="#e5e7eb" stroke-width="1"/>
  <text x="340" y="360" font-family="Arial" font-size="9" fill="#166534" text-anchor="middle" font-weight="bold">APPROVED</text>
  <rect x="312" y="370" width="56" height="4" rx="2" fill="#e5e7eb"/>
  <rect x="312" y="380" width="40" height="4" rx="2" fill="#e5e7eb"/>
  <rect x="312" y="395" width="56" height="4" rx="2" fill="#e5e7eb"/>
  <circle cx="340" cy="418" r="8" fill="#4ade80" opacity="0.4"/>
  <path d="M336 418 L339 421 L345 415" stroke="#166534" stroke-width="1.5" fill="none" stroke-linecap="round"/>
  <rect x="420" y="330" width="80" height="100" rx="8" fill="white" stroke="#e5e7eb" stroke-width="1"/>
  <text x="460" y="360" font-family="Arial" font-size="9" fill="#166534" text-anchor="middle" font-weight="bold">EIN</text>
  <text x="460" y="385" font-family="Georgia" font-size="14" fill="#111827" text-anchor="middle">XX-XXXXXXX</text>
  <circle cx="460" cy="418" r="8" fill="#4ade80" opacity="0.4"/>
  <path d="M456 418 L459 421 L465 415" stroke="#166534" stroke-width="1.5" fill="none" stroke-linecap="round"/>
  <text x="400" y="490" font-family="Georgia, serif" font-size="22" fill="#111827" text-anchor="middle">Your LLC is ready</text>
  <text x="400" y="520" font-family="Arial" font-size="13" fill="#6b7280" text-anchor="middle">Formation complete — time to build your business</text>
</svg>
