<svg xmlns="http://www.w3.org/2000/svg" viewBox="0 0 640 400" fill="none">
  <rect width="640" height="400" rx="16" fill="#f5f0e8"/>
  <rect x="170" y="40" width="300" height="320" rx="14" fill="white" stroke="#e5e7eb" stroke-width="1.5"/>
  <rect x="170" y="40" width="300" height="55" rx="14" fill="#166534"/>
  <rect x="170" y="80" width="300" height="15" fill="#166534"/>
  <text x="320" y="75" font-family="Arial" font-size="14" fill="white" text-anchor="middle" font-weight="bold">COMPLIANCE CHECKLIST</text>
  <g transform="translate(200, 115)">
    <rect x="0" y="0" width="20" height="20" rx="4" fill="#166534" opacity="0.15"/>
    <path d="M5 10 L9 14 L16 6" stroke="#166534" stroke-width="2.5" fill="none" stroke-linecap="round"/>
    <text x="30" y="15" font-family="Arial" font-size="13" fill="#111827">Annual Franchise Tax ($800)</text>
  </g>
  <g transform="translate(200, 155)">
    <rect x="0" y="0" width="20" height="20" rx="4" fill="#166534" opacity="0.15"/>
    <path d="M5 10 L9 14 L16 6" stroke="#166534" stroke-width="2.5" fill="none" stroke-linecap="round"/>
    <text x="30" y="15" font-family="Arial" font-size="13" fill="#111827">Statement of Information</text>
  </g>
  <g transform="translate(200, 195)">
    <rect x="0" y="0" width="20" height="20" rx="4" fill="#166534" opacity="0.15"/>
    <path d="M5 10 L9 14 L16 6" stroke="#166534" stroke-width="2.5" fill="none" stroke-linecap="round"/>
    <text x="30" y="15" font-family="Arial" font-size="13" fill="#111827">BOI Report (FinCEN)</text>
  </g>
  <g transform="translate(200, 235)">
    <rect x="0" y="0" width="20" height="20" rx="4" fill="#fbbf24" opacity="0.3" stroke="#fbbf24" stroke-width="1.5"/>
    <text x="30" y="15" font-family="Arial" font-size="13" fill="#111827">Registered Agent Renewal</text>
  </g>
  <g transform="translate(200, 275)">
    <rect x="0" y="0" width="20" height="20" rx="4" fill="#e5e7eb" stroke="#d1d5db" stroke-width="1.5"/>
    <text x="30" y="15" font-family="Arial" font-size="13" fill="#111827">Operating Agreement Review</text>
  </g>
  <text x="320" y="340" font-family="Arial" font-size="11" fill="#6b7280" text-anchor="middle">3 of 5 complete</text>
  <rect x="230" y="350" width="180" height="6" rx="3" fill="#e5e7eb"/>
  <rect x="230" y="350" width="108" height="6" rx="3" fill="#166534" opacity="0.7"/>
</svg>
