<svg xmlns="http://www.w3.org/2000/svg" viewBox="0 0 640 400" fill="none">
  <rect width="640" height="400" rx="16" fill="#166534"/>
  <rect x="40" y="40" width="200" height="260" rx="12" fill="white" opacity="0.12"/>
  <rect x="55" y="60" width="120" height="8" rx="4" fill="white" opacity="0.3"/>
  <rect x="55" y="78" width="90" height="6" rx="3" fill="white" opacity="0.2"/>
  <rect x="55" y="100" width="160" height="1" fill="white" opacity="0.1"/>
  <circle cx="75" cy="130" r="12" fill="#ef4444" opacity="0.4"/>
  <text x="75" y="135" font-family="Arial" font-size="14" fill="white" text-anchor="middle" font-weight="bold">1</text>
  <rect x="100" y="124" width="120" height="6" rx="3" fill="white" opacity="0.25"/>
  <circle cx="75" cy="165" r="12" fill="#ef4444" opacity="0.4"/>
  <text x="75" y="170" font-family="Arial" font-size="14" fill="white" text-anchor="middle" font-weight="bold">2</text>
  <rect x="100" y="159" width="100" height="6" rx="3" fill="white" opacity="0.25"/>
  <circle cx="75" cy="200" r="12" fill="#ef4444" opacity="0.4"/>
  <text x="75" y="205" font-family="Arial" font-size="14" fill="white" text-anchor="middle" font-weight="bold">3</text>
  <rect x="100" y="194" width="110" height="6" rx="3" fill="white" opacity="0.25"/>
  <circle cx="75" cy="235" r="12" fill="#ef4444" opacity="0.4"/>
  <text x="75" y="240" font-family="Arial" font-size="14" fill="white" text-anchor="middle" font-weight="bold">4</text>
  <rect x="100" y="229" width="90" height="6" rx="3" fill="white" opacity="0.25"/>
  <circle cx="75" cy="270" r="12" fill="#ef4444" opacity="0.4"/>
  <text x="75" y="275" font-family="Arial" font-size="14" fill="white" text-anchor="middle" font-weight="bold">5</text>
  <rect x="100" y="264" width="130" height="6" rx="3" fill="white" opacity="0.25"/>
  <text x="400" y="160" font-family="Georgia, serif" font-size="28" fill="white" text-anchor="middle" opacity="0.9">5 LLC</text>
  <text x="400" y="195" font-family="Georgia, serif" font-size="28" fill="white" text-anchor="middle" opacity="0.9">Mistakes</text>
  <text x="400" y="230" font-family="Georgia, serif" font-size="28" fill="white" text-anchor="middle" opacity="0.9">to Avoid</text>
  <rect x="340" y="260" width="120" height="32" rx="16" fill="white" opacity="0.15"/>
  <text x="400" y="281" font-family="Arial" font-size="12" fill="white" text-anchor="middle" opacity="0.7">Read Guide</text>
</svg>
