<svg xmlns="http://www.w3.org/2000/svg" viewBox="0 0 640 400" fill="none">
  <rect width="640" height="400" rx="16" fill="#1e3a5f"/>
  <circle cx="220" cy="180" r="70" fill="white" opacity="0.1"/>
  <circle cx="220" cy="165" r="25" fill="#d1c4a5"/>
  <path d="M195 220 Q195 198 220 198 Q245 198 245 220 L245 260 L195 260 Z" fill="white" opacity="0.7"/>
  <text x="220" y="295" font-family="Arial" font-size="14" fill="white" text-anchor="middle" font-weight="bold" opacity="0.8">Single-Member</text>
  <text x="220" y="315" font-family="Arial" font-size="11" fill="white" text-anchor="middle" opacity="0.4">Simpler taxes</text>
  <text x="220" y="335" font-family="Arial" font-size="11" fill="white" text-anchor="middle" opacity="0.4">Full control</text>
  <text x="320" y="200" font-family="Georgia, serif" font-size="20" fill="white" text-anchor="middle" opacity="0.5">vs</text>
  <circle cx="420" cy="180" r="70" fill="white" opacity="0.1"/>
  <circle cx="400" cy="165" r="20" fill="#c4a882"/>
  <circle cx="440" cy="165" r="20" fill="#b8977a"/>
  <path d="M380 215 Q380 198 400 198 Q420 198 420 215 L420 250 L380 250 Z" fill="white" opacity="0.7"/>
  <path d="M420 215 Q420 198 440 198 Q460 198 460 215 L460 250 L420 250 Z" fill="white" opacity="0.6"/>
  <text x="420" y="295" font-family="Arial" font-size="14" fill="white" text-anchor="middle" font-weight="bold" opacity="0.8">Multi-Member</text>
  <text x="420" y="315" font-family="Arial" font-size="11" fill="white" text-anchor="middle" opacity="0.4">Shared liability</text>
  <text x="420" y="335" font-family="Arial" font-size="11" fill="white" text-anchor="middle" opacity="0.4">More flexibility</text>
  <text x="320" y="70" font-family="Georgia, serif" font-size="20" fill="white" text-anchor="middle" opacity="0.7">Pros &amp; Cons</text>
</svg>
